<?xml version="1.0" encoding="UTF-8" standalone="no"?>
<svg
   xmlns:dc="http://purl.org/dc/elements/1.1/"
   xmlns:cc="http://creativecommons.org/ns#"
   xmlns:rdf="http://www.w3.org/1999/02/22-rdf-syntax-ns#"
   xmlns:svg="http://www.w3.org/2000/svg"
   xmlns="http://www.w3.org/2000/svg"
   xmlns:sodipodi="http://sodipodi.sourceforge.net/DTD/sodipodi-0.dtd"
   xmlns:inkscape="http://www.inkscape.org/namespaces/inkscape"
   width="1080"
   height="1080"
   viewBox="0 0 285.75 285.74999"
   version="1.1"
   id="svg736"
   inkscape:version="1.0.1 (3bc2e813f5, 2020-09-07)"
   sodipodi:docname="maratona-logo-branca.svg">
  <defs
     id="defs730" />
  <sodipodi:namedview
     id="base"
     pagecolor="#000000"
     bordercolor="#666666"
     borderopacity="1.0"
     inkscape:pageopacity="0"
     inkscape:pageshadow="2"
     inkscape:zoom="0.35"
     inkscape:cx="782.08246"
     inkscape:cy="640.64632"
     inkscape:document-units="mm"
     inkscape:current-layer="layer1"
     inkscape:document-rotation="0"
     showgrid="false"
     inkscape:pagecheckerboard="true"
     fit-margin-top="20"
     fit-margin-left="20"
     fit-margin-right="20"
     fit-margin-bottom="20"
     units="px"
     inkscape:window-width="1920"
     inkscape:window-height="1008"
     inkscape:window-x="0"
     inkscape:window-y="42"
     inkscape:window-maximized="1" />
  <metadata
     id="metadata733">
    <rdf:RDF>
      <cc:Work
         rdf:about="">
        <dc:format>image/svg+xml</dc:format>
        <dc:type
           rdf:resource="http://purl.org/dc/dcmitype/StillImage" />
        <dc:title></dc:title>
      </cc:Work>
    </rdf:RDF>
  </metadata>
  <g
     inkscape:label="Layer 1"
     inkscape:groupmode="layer"
     id="layer1"
     transform="translate(319.65403,112.05196)">
    <path
       style="fill:#ffffff;stroke-width:0.135221"
       d="m -95.593182,147.78566 c -1.83911,-0.34581 -2.52719,-0.50636 -2.67062,-0.62315 -0.20071,-0.16343 -0.23238,-1.67203 -0.0376,-1.79239 0.0723,-0.0447 0.77512,0.043 1.56191,0.19484 1.97107,0.38037 2.68986,0.36748 3.1132,-0.0558 0.79578,-0.79579 0.0939,-1.5612 -1.43169,-1.5612 -0.46016,0 -0.66466,-0.0605 -0.72353,-0.21387 -0.0451,-0.11766 -0.0821,-0.84045 -0.0821,-1.60623 v -1.39234 l -0.91274,-0.229 c -2.84469,-0.71377 -4.876428,-3.33423 -5.318458,-6.85956 -0.45419,-3.62212 1.15321,-7.34504 3.774438,-8.74212 1.52804,-0.81444 2.09848,-0.89393 6.44577,-0.89819 l 3.92145,-0.004 0.0377,1.79171 0.0377,1.79167 -2.53934,0.004 c -1.39661,0.003 -2.98056,0.0615 -3.51983,0.1315 -2.80565,0.36443 -3.77815,1.6978 -3.66033,5.0184 0.0419,1.18047 0.11967,1.68283 0.33369,2.15471 0.38704,0.85339 1.02667,1.54094 1.77771,1.91085 0.60161,0.29634 0.82455,0.31713 4.08448,0.38106 l 3.44816,0.0676 v 1.75786 1.75789 l -3.04247,0.0676 -3.04247,0.0676 -0.0432,0.5271 c -0.0486,0.59423 0.10134,0.75187 0.7193,0.75618 1.31834,0.009 2.53799,0.94033 2.7069,2.06656 0.2196,1.46444 -0.33068,2.64721 -1.49347,3.21008 -0.49152,0.23797 -0.91744,0.31668 -1.87145,0.34597 -0.67929,0.0206 -1.38721,0.01 -1.57314,-0.0257 z m -104.035468,-1.06947 c -0.12009,-0.31295 -0.10178,-2.80276 0.022,-2.99754 0.0751,-0.11819 1.22859,-0.17272 4.2912,-0.20283 3.9475,-0.0388 4.21955,-0.0575 4.72932,-0.32481 0.6599,-0.34607 1.02013,-0.92704 1.05532,-1.70214 l 0.0265,-0.58343 -3.11008,-0.0839 c -2.06327,-0.0557 -3.34187,-0.14957 -3.7987,-0.27893 -2.21387,-0.62695 -4.10935,-2.8865 -4.70905,-5.61361 -0.27938,-1.27045 -0.27842,-3.68631 0.003,-4.9498 0.46763,-2.10748 1.96136,-4.27834 3.52841,-5.12791 1.44716,-0.7846 1.94574,-0.84146 7.41137,-0.84514 l 5.00314,-0.003 v 9.12743 c 0,9.03613 -0.003,9.13691 -0.29842,10.07581 -0.5479,1.74125 -1.40753,2.69976 -2.99487,3.33944 -0.74012,0.29829 -0.91996,0.30888 -5.91826,0.34975 -4.67172,0.0382 -5.16289,0.0214 -5.23983,-0.17904 z m 10.12434,-14.26207 v -4.80037 h -2.23116 c -2.17918,0 -2.24946,0.01 -3.01781,0.3863 -0.96742,0.47447 -1.60708,1.29614 -1.9282,2.47684 -0.32999,1.21327 -0.22127,3.62537 0.20767,4.60838 0.71321,1.63444 2.07386,2.19657 5.2116,2.1531 l 1.7579,-0.0243 v -4.80036 z m -24.20459,8.46296 c -3.58158,-0.82328 -5.81633,-3.35495 -6.30311,-7.1406 -0.39471,-3.06941 0.45394,-5.85124 2.36654,-7.75722 1.58385,-1.57837 3.61701,-2.35452 6.1677,-2.35452 5.60541,0 9.10029,4.08384 8.50545,9.93875 -0.35811,3.52468 -2.22527,5.98427 -5.35101,7.04877 -0.88627,0.30183 -1.34451,0.36787 -2.81636,0.40589 -1.16612,0.0301 -2.03102,-0.0172 -2.56921,-0.14107 z m 4.16055,-3.90758 c 1.35154,-0.79203 1.98866,-2.07576 2.09352,-4.21817 0.12234,-2.49923 -0.62135,-4.19794 -2.18827,-4.9983 -0.70297,-0.35907 -0.93699,-0.40881 -1.89309,-0.40238 -1.76297,0.0119 -2.7953,0.69199 -3.58034,2.35903 -0.32282,0.68548 -0.35026,0.88664 -0.35026,2.56921 0,2.16051 0.19775,2.89422 1.03696,3.84759 0.90109,1.0237 1.60345,1.29974 3.16738,1.24476 0.90043,-0.0316 1.20398,-0.10279 1.7141,-0.40174 z m 149.217048,3.88138 c -2.98027,-0.63992 -5.1684,-2.73235 -6.00586,-5.74315 -0.18235,-0.65574 -0.24011,-1.34784 -0.23614,-2.82884 0.005,-1.75181 0.0437,-2.07709 0.3656,-3.05308 1.23484,-3.74417 4.45061,-5.78787 8.74689,-5.55898 3.76134,0.20045 6.40339,2.11008 7.51843,5.43438 0.48921,1.45852 0.6078,3.97582 0.26191,5.56094 -0.70445,3.22876 -2.97701,5.54148 -6.09396,6.20175 -1.17978,0.2499 -3.36138,0.24366 -4.55687,-0.013 z m 4.15777,-3.84661 c 0.78951,-0.40648 1.41044,-1.16814 1.83703,-2.25322 0.25924,-0.65932 0.30742,-1.03632 0.30742,-2.40454 0,-1.37705 -0.0477,-1.74545 -0.3151,-2.434 -0.79819,-2.05521 -2.84921,-3.06504 -4.95141,-2.43785 -1.80909,0.53975 -2.80892,2.29788 -2.80892,4.93946 0,2.54674 0.86198,4.10233 2.67666,4.83041 0.2332,0.0936 0.88307,0.15227 1.4977,0.13526 0.85957,-0.0238 1.22549,-0.10205 1.75662,-0.37552 z m -242.116228,3.58346 c -2.70369,-0.58544 -4.74159,-2.5936 -5.48158,-5.40157 -0.33483,-1.27051 -0.4068,-3.70661 -0.14981,-5.07082 0.42701,-2.26661 1.82573,-4.38746 3.47247,-5.26516 1.36718,-0.72869 1.95623,-0.83579 5.13379,-0.93334 l 2.90727,-0.0893 0.0742,-2.97487 c 0.0409,-1.63619 0.0865,-2.99165 0.10144,-3.01218 0.0148,-0.0204 0.95507,-0.0204 2.08926,0 l 2.06211,0.0373 v 11.42619 11.42619 l -4.66511,0.0238 c -3.57809,0.0183 -4.86995,-0.0204 -5.54408,-0.16642 z m 5.91765,-8.20743 -0.0355,-4.76655 -2.02835,0.0151 c -2.45491,0.018 -3.2254,0.24268 -4.1048,1.19669 -0.77158,0.83706 -1.02127,1.75641 -1.01142,3.72401 0.014,2.76955 0.75784,3.98955 2.71396,4.4504 0.28004,0.066 1.4075,0.12607 2.50542,0.13353 l 1.99623,0.0138 z m 13.01332,8.21672 c -1.6745,-0.33819 -3.09513,-1.09895 -4.00736,-2.14601 -0.65235,-0.74877 -1.35763,-2.24658 -1.60276,-3.40395 -0.26088,-1.2315 -0.26138,-4.16456 0,-5.40498 0.43489,-2.07145 1.7272,-3.89049 3.37992,-4.75758 1.60337,-0.84119 2.12958,-0.91411 6.62585,-0.91811 l 4.05662,-0.004 0.0378,1.70982 0.0377,1.70981 -3.68869,0.0616 c -4.15486,0.0694 -4.70194,0.17007 -5.31892,0.97896 -0.45069,0.59089 -0.7434,1.92521 -0.46143,2.10354 0.11202,0.0709 2.21808,0.12647 4.83391,0.12766 l 4.63534,0.003 -0.0378,1.72407 -0.0379,1.72406 -4.73276,0.0676 -4.73273,0.0676 0.0114,0.57047 c 0.0145,0.72263 0.40121,1.58978 0.83632,1.87489 0.6631,0.43448 1.23309,0.50231 4.89926,0.58293 l 3.71856,0.0818 v 1.69027 1.69026 l -3.78619,0.022 c -2.66896,0.0156 -4.04555,-0.0303 -4.66516,-0.15536 z m 23.59075,0.0318 c -0.0354,-0.093 -0.0488,-5.24997 -0.0296,-11.46 l 0.0349,-11.29097 h 6.76108 c 6.57199,0 6.79278,0.008 7.89564,0.30256 1.4287,0.38097 2.08347,0.76464 3.00316,1.75971 1.32183,1.43015 1.8742,3.02877 1.87761,5.43388 0.005,3.14733 -1.15167,5.30688 -3.46662,6.47544 -1.42589,0.7198 -2.36969,0.84315 -7.11245,0.92969 l -4.29326,0.0783 v 3.75632 c 0,2.06597 -0.0369,3.85254 -0.0821,3.97018 -0.0702,0.18303 -0.40254,0.21389 -2.30299,0.21389 -1.65221,0 -2.23742,-0.0433 -2.28542,-0.16902 z m 12.21189,-12.20706 c 1.28593,-0.38187 2.0287,-1.33704 2.15922,-2.77672 0.16213,-1.78795 -0.56124,-3.0013 -2.06063,-3.45638 -0.68996,-0.20942 -1.31699,-0.24681 -4.19187,-0.25019 l -3.38051,-0.004 -0.0362,3.34674 -0.0362,3.34669 h 3.42596 c 2.67623,0 3.57791,-0.0451 4.1202,-0.20616 z m 10.12074,12.16563 c -0.10813,-0.28173 -0.10938,-16.19668 0,-16.47831 0.0722,-0.18827 0.55491,-0.21391 4.0318,-0.21391 4.81989,0 5.73744,0.13679 6.68316,0.99621 0.74229,0.67447 0.88533,1.20613 0.96274,3.57812 0.0396,1.21441 0.0233,2.29446 -0.0361,2.40019 -0.0847,0.1506 -0.48498,0.19222 -1.84822,0.19222 -0.95705,0 -1.83634,-0.0369 -1.95397,-0.0821 -0.17539,-0.0673 -0.21426,-0.32891 -0.2159,-1.45363 -0.003,-1.59078 -0.14544,-1.97974 -0.81285,-2.20905 -0.66091,-0.22707 -2.22279,-0.22405 -2.41261,0.005 -0.10488,0.12639 -0.1611,2.18551 -0.18558,6.7949 l -0.0351,6.6136 -2.04634,0.0372 c -1.77699,0.0323 -2.05732,0.009 -2.12973,-0.18008 z m 51.905,0.045 c -0.0363,-0.0949 -0.0502,-3.8844 -0.0309,-8.42105 l 0.0351,-8.24852 h 4.3947 c 4.69437,0 4.9539,0.0303 5.99551,0.70009 0.36066,0.23194 0.62815,0.56812 0.87641,1.10146 0.33075,0.71065 0.36102,0.93049 0.40743,2.95897 l 0.0501,2.19133 -0.31803,0.0789 c -0.17492,0.0434 -1.07863,0.0613 -2.00827,0.0398 l -1.69026,-0.0391 -0.0949,-1.51797 c -0.0522,-0.83484 -0.15971,-1.63907 -0.23892,-1.78707 -0.19471,-0.36386 -1.03749,-0.56931 -2.13728,-0.52105 l -0.90943,0.0399 -0.0676,6.76103 -0.0676,6.76108 -2.06502,0.0373 c -1.57758,0.0285 -2.0806,-0.003 -2.13098,-0.13521 z m 16.85018,-0.0493 c -0.94549,-0.25422 -1.49596,-0.60145 -2.17326,-1.37089 -0.74113,-0.84198 -1.01799,-1.78244 -1.00606,-3.41752 0.0233,-3.21307 1.304,-4.67585 4.49763,-5.13781 0.49601,-0.0717 2.37093,-0.13165 4.1665,-0.13311 3.67046,-0.003 3.50597,0.0484 3.30393,-1.03309 -0.15497,-0.82944 -0.49453,-1.26606 -1.30199,-1.67402 -0.66386,-0.33541 -0.70384,-0.33856 -5.13135,-0.40566 l -4.46233,-0.0676 v -1.69026 -1.69027 l 5.34125,0.005 c 5.06523,0.005 5.38488,0.0198 6.18611,0.29001 2.3427,0.78949 3.4798,2.25946 3.81487,4.93167 0.14838,1.1834 0.19897,11.02823 0.0585,11.3942 -0.0733,0.19093 -0.75147,0.21294 -6.32161,0.205 -5.01703,-0.007 -6.38305,-0.0475 -6.97222,-0.2059 z m 8.846,-4.92363 v -1.69027 h -3.1777 c -2.95791,0 -3.21043,0.019 -3.65099,0.27683 -0.82793,0.48432 -1.05423,1.86307 -0.43188,2.63163 0.36346,0.44884 0.93901,0.51618 4.2181,0.49332 l 3.04247,-0.0212 z m 8.24433,4.97292 c -0.0363,-0.0949 -0.0502,-3.8844 -0.0309,-8.42105 l 0.0351,-8.2485 h 9.12741 c 9.82588,0 9.84517,0 11.33025,0.71808 0.85034,0.41048 1.69934,1.28794 2.05983,2.12897 0.48856,1.1398 0.54841,2.09323 0.50859,8.10586 l -0.0385,5.81453 h -2.09592 -2.0959 l -0.0676,-5.90621 c -0.0653,-5.70524 -0.0771,-5.91923 -0.34769,-6.2878 -0.53538,-0.72948 -1.01444,-0.86241 -2.96524,-0.82288 l -1.75789,0.0356 -0.0676,6.49062 -0.0676,6.49063 h -2.09592 -2.09595 l -0.0676,-6.49063 -0.0676,-6.49062 h -2.43401 -2.43398 l -0.0676,6.49062 -0.0676,6.49063 -2.06499,0.0373 c -1.5776,0.0285 -2.0806,-0.003 -2.13101,-0.1352 z m 29.51565,0.0193 c -1.34265,-0.31818 -2.43864,-1.20435 -2.9882,-2.4162 -0.38294,-0.84436 -0.48049,-3.30247 -0.17304,-4.36009 0.44127,-1.51784 1.37178,-2.42467 3.04924,-2.97162 0.79701,-0.25987 1.30009,-0.29858 4.81148,-0.37028 l 3.92139,-0.0801 -0.018,-0.70221 c -0.0206,-0.80753 -0.3725,-1.47955 -0.95295,-1.82041 -0.70458,-0.41378 -1.91563,-0.51985 -5.93566,-0.51985 -3.47689,0 -3.95954,-0.0257 -4.0318,-0.21389 -0.12396,-0.32298 -0.0944,-2.93788 0.0355,-3.14278 0.0919,-0.14491 1.11495,-0.16946 5.37297,-0.12898 4.89884,0.0466 5.31712,0.0694 6.09978,0.33234 2.29778,0.77193 3.40786,2.08675 3.82381,4.52901 0.0926,0.54374 0.13169,2.87554 0.10719,6.3995 l -0.0385,5.54408 -6.28779,0.0209 c -3.45829,0.0117 -6.51624,-0.0333 -6.79543,-0.0994 z m 8.62087,-4.99226 v -1.69027 l -2.70251,-0.0368 c -3.18008,-0.0433 -3.96208,0.0732 -4.45942,0.66426 -0.28252,0.33576 -0.34282,0.54832 -0.34282,1.20835 0,0.89443 0.24103,1.27029 0.90929,1.41785 0.20643,0.0456 0.43614,0.10377 0.51052,0.1293 0.0744,0.0254 1.47391,0.0354 3.11009,0.022 l 2.97485,-0.0243 z m 26.868108,4.92763 c -0.39434,-0.10616 -0.8409,-0.2593 -0.99232,-0.34031 -0.56393,-0.30184 -1.36433,-1.14221 -1.67869,-1.76247 -1.01414,-2.00131 -0.56919,-5.43166 0.85697,-6.6072 1.31988,-1.088 2.75643,-1.35604 7.26705,-1.35604 3.65387,0 3.53615,0.0326 3.36193,-0.93091 -0.11407,-0.63096 -0.35322,-1.09392 -0.74933,-1.45056 -0.65783,-0.59235 -1.05135,-0.6419 -5.72593,-0.72088 l -4.46231,-0.0753 -0.0394,-1.41984 c -0.0214,-0.78091 -0.005,-1.55673 0.0364,-1.72407 l 0.0758,-0.30425 h 4.76399 c 2.62017,0 5.14649,0.0631 5.61406,0.13899 2.50907,0.40716 4.05426,1.69748 4.72734,3.94771 0.17505,0.58518 0.22323,1.73739 0.26932,6.44271 0.0309,3.15156 0.0198,5.87457 -0.0246,6.05116 l -0.0806,0.32107 -6.25139,-0.009 c -4.96793,-0.007 -6.39861,-0.0485 -6.96841,-0.20188 z m 8.83028,-4.92763 v -1.69027 h -3.1101 c -3.34295,0 -3.78388,0.0725 -4.18769,0.68874 -0.34269,0.52308 -0.3938,1.40354 -0.1129,1.94569 0.37235,0.71859 0.83074,0.7995 4.36825,0.77079 l 3.04244,-0.0246 z m -8.40801,-14.14523 c -0.13036,-0.33968 0.32951,-1.61193 0.80793,-2.23531 0.97148,-1.26569 1.75451,-1.43764 3.97362,-0.87265 1.9716,0.50202 2.34614,0.47863 2.90537,-0.18142 0.43341,-0.5116 0.75946,-0.62889 1.56628,-0.56349 0.43632,0.0353 -0.0845,1.76787 -0.78791,2.62059 -0.90318,1.09509 -1.92338,1.27649 -3.97965,0.70769 -1.88888,-0.5225 -2.42863,-0.45511 -2.96579,0.37017 -0.20373,0.31301 -0.33655,0.37188 -0.83923,0.37188 -0.42394,0 -0.6214,-0.0631 -0.68062,-0.21746 z m -108.417478,-8.09974 c -0.51753,-0.10727 -1.43026,-0.43011 -2.02832,-0.71742 -2.71585,-1.30466 -4.29506,-3.79156 -4.49535,-7.07906 -0.24022,-3.94291 1.37456,-6.996724 4.48974,-8.490884 1.54776,-0.74236 2.27621,-0.88564 4.4623,-0.87774 3.01109,0.0109 4.73475,0.65345 6.49248,2.42035 1.60451,1.612864 2.36453,3.631424 2.36453,6.280044 0,4.04242 -2.06269,7.06746 -5.6011,8.2143 -0.90868,0.29451 -1.39933,0.36173 -2.91785,0.39976 -1.23166,0.0309 -2.13159,-0.0177 -2.76643,-0.14935 z m 3.79576,-3.64679 c 0.9443,-0.28042 1.71286,-0.98882 2.24412,-2.06843 0.43918,-0.89253 0.44514,-0.93001 0.44514,-2.80015 0,-1.76262 -0.0249,-1.94848 -0.35428,-2.65093 -0.43281,-0.92296 -1.17359,-1.68701 -2.00001,-2.06281 -0.87847,-0.399494 -2.67235,-0.397974 -3.52782,0.003 -1.74454,0.81761 -2.51058,2.44702 -2.40822,5.12215 0.0527,1.37523 0.0993,1.60159 0.49515,2.40574 0.51019,1.03636 1.29286,1.77026 2.17934,2.04355 0.81397,0.2509 2.09661,0.25437 2.92658,0.008 z m -107.92702,3.41129 c -0.0355,-0.093 -0.0488,-5.24996 -0.0296,-11.45999 l 0.0349,-11.290974 h 3.51573 3.51578 l 2.84234,8.50858 c 1.56332,4.679714 2.90232,8.528544 2.97558,8.552964 0.0733,0.0244 1.41563,-3.80442 2.98302,-8.508554 l 2.8498,-8.55299 h 3.50488 3.50488 v 11.426194 11.42618 l -2.26792,0.0371 c -1.74035,0.0285 -2.28317,-0.003 -2.33347,-0.13523 -0.0361,-0.0948 0.0212,-3.88413 0.127,-8.42079 0.10586,-4.53668 0.14197,-8.301024 0.0803,-8.365224 -0.0618,-0.0642 -1.38017,3.708484 -2.92984,8.383724 l -2.8176,8.50042 -2.52904,0.0368 c -2.30598,0.0335 -2.5399,0.0156 -2.65184,-0.20284 -0.0675,-0.13177 -1.34972,-3.92099 -2.84933,-8.42047 -1.4996,-4.49948 -2.78257,-8.270404 -2.85109,-8.379794 -0.0685,-0.1094 -0.15727,-0.16618 -0.19728,-0.12615 -0.04,0.04 0.0164,3.20243 0.12557,7.027584 0.10909,3.82515 0.19939,7.66979 0.20064,8.54366 l 0.003,1.58885 h -2.37062 c -1.77194,0 -2.38688,-0.0427 -2.43506,-0.16903 z m 33.13453,0.0813 c -1.9499,-0.40609 -3.09353,-1.33357 -3.6314,-2.94506 -0.32576,-0.97607 -0.29724,-2.91661 0.0598,-4.07274 0.22714,-0.73535 0.41939,-1.0509 0.98443,-1.61596 1.26511,-1.26508 2.68237,-1.54868 7.75936,-1.55267 l 3.41434,-0.002 v -0.61283 c 0,-1.14613 -0.53835,-1.90024 -1.60451,-2.24765 -0.31689,-0.10326 -2.12413,-0.18802 -5.08895,-0.23868 l -4.59753,-0.0785 v -1.69027 -1.69026 h 5.47648 c 4.93154,0 5.55718,0.0247 6.2878,0.24857 2.44652,0.7496 3.75877,2.27676 4.12361,4.798954 0.14115,0.97604 0.18878,11.22178 0.0538,11.57362 -0.0734,0.1912 -0.76534,0.21222 -6.52442,0.1982 -3.5433,-0.009 -6.56404,-0.041 -6.71279,-0.072 z m 8.55951,-3.4551 c 0.18849,-0.18851 0.22601,-2.90835 0.044,-3.19538 -0.0911,-0.14369 -0.76531,-0.17094 -3.34468,-0.13523 -3.56587,0.0494 -3.8967,0.11993 -4.31006,0.91925 -0.52371,1.01274 -0.0928,2.2067 0.87881,2.43516 0.78844,0.18539 6.54304,0.16504 6.73188,-0.0238 z m 8.60941,3.37721 c -0.0362,-0.0949 -0.0502,-3.88429 -0.0309,-8.42095 l 0.0351,-8.248494 h 4.52991 c 5.19956,0 5.72203,0.0785 6.64175,0.99825 0.76489,0.76487 0.9461,1.57363 0.90056,4.018564 l -0.0375,2.01469 -1.75786,0.039 c -2.52055,0.0559 -2.36638,0.14704 -2.36638,-1.39814 0,-1.68236 -0.18833,-2.15528 -0.93877,-2.357364 -0.30448,-0.082 -0.99362,-0.1312 -1.53146,-0.10938 l -0.9779,0.0397 -0.0676,6.761054 -0.0676,6.76106 -2.13267,0.0373 c -1.63182,0.0285 -2.14813,-0.003 -2.19861,-0.13522 z m 17.51859,-0.0505 c -2.4852,-0.67005 -3.69191,-2.77088 -3.27699,-5.70503 0.32774,-2.31739 1.33545,-3.45557 3.57372,-4.0363 0.64543,-0.16747 1.80713,-0.24039 4.83839,-0.30368 l 3.98904,-0.0833 -0.018,-0.70222 c -0.0334,-1.30164 -0.71128,-1.94873 -2.3169,-2.21173 -0.42633,-0.0698 -2.60932,-0.12731 -4.85111,-0.12774 -3.59156,-10e-4 -4.08575,-0.0262 -4.15806,-0.214674 -0.0451,-0.11765 -0.0821,-0.84039 -0.0821,-1.60609 0,-1.04623 0.0483,-1.43235 0.19455,-1.55368 0.31755,-0.26355 10.73562,-0.11995 11.67029,0.16085 1.73712,0.52188 2.89264,1.39839 3.53306,2.67998 0.66622,1.333244 0.70038,1.748034 0.66164,8.037594 l -0.0359,5.81451 -6.49059,0.0256 c -5.35843,0.0211 -6.6198,-0.009 -7.23107,-0.17407 z m 9.12416,-4.92229 v -1.69027 h -3.24533 c -2.61966,0 -3.32113,0.0391 -3.63879,0.20284 -0.59563,0.30701 -0.91376,0.82442 -0.92342,1.50184 -0.023,1.61657 0.28295,1.72713 4.69747,1.69705 l 3.11007,-0.0212 z m 13.33029,4.92508 c -1.4691,-0.39793 -2.52629,-1.41034 -3.01032,-2.88278 -0.27118,-0.82485 -0.29949,-1.25373 -0.37119,-5.62565 l -0.0776,-4.732744 -1.48746,-0.0676 -1.48741,-0.0676 -0.0395,-1.35221 c -0.0608,-2.08115 -0.15896,-1.96071 1.59713,-1.96071 h 1.48487 v -2.82857 c 0,-1.55573 0.0369,-2.92484 0.0821,-3.04248 0.0701,-0.18263 0.39622,-0.2139 2.23115,-0.2139 h 2.14905 l 0.006,0.50708 c 0.003,0.27889 0.003,1.57195 0,2.87345 -0.004,1.3015 0.0421,2.44087 0.1016,2.53191 0.0763,0.11685 0.76285,0.17652 2.33349,0.20283 l 2.22536,0.0373 v 1.62265 1.62266 l -2.19437,0.0371 c -1.91942,0.0325 -2.20912,0.0664 -2.31193,0.270444 -0.1614,0.32035 -0.18937,4.73563 -0.0427,6.74965 0.19142,2.62876 0.57972,3.02857 3.05723,3.14779 l 1.4918,0.0718 v 1.62265 1.62266 l -2.50158,0.0264 c -1.84624,0.0195 -2.69357,-0.0256 -3.23432,-0.17209 z m 27.90801,0.0477 c -0.0363,-0.0949 -0.0502,-3.88429 -0.0309,-8.42095 l 0.0351,-8.248494 4.52993,-0.0388 c 2.66481,-0.0228 4.98486,0.0204 5.63483,0.10504 2.80075,0.36462 4.19907,1.39442 4.8676,3.584754 0.22452,0.73557 0.24765,1.38574 0.24765,6.96388 v 6.15256 h -2.16355 -2.16353 l -0.0676,-5.7469 c -0.0752,-6.39315 -0.0914,-6.50942 -0.96972,-6.98871 -0.389,-0.21227 -0.78976,-0.24561 -2.9517,-0.24561 h -2.50158 l -0.0676,6.4906 -0.0676,6.49062 -2.13264,0.0373 c -1.63182,0.0285 -2.14816,-0.003 -2.19861,-0.13522 z m 21.89744,0.0269 c -1.41697,-0.28258 -2.56487,-1.16636 -3.14518,-2.42148 -0.28316,-0.61243 -0.35806,-1.00987 -0.40193,-2.13239 -0.11705,-2.99608 0.90554,-4.50649 3.56098,-5.25957 0.65238,-0.18502 1.59284,-0.24156 4.83285,-0.29056 l 4.02283,-0.0608 v -0.59947 c 0,-1.13249 -0.54277,-1.88832 -1.60451,-2.23427 -0.31692,-0.10327 -2.12413,-0.18803 -5.08895,-0.23868 l -4.59753,-0.0785 v -1.69027 -1.69026 l 4.9335,-0.0355 c 5.5594,-0.04 6.60898,0.0608 8.05871,0.77453 1.0786,0.531 2.09743,1.62165 2.48668,2.66197 0.4752,1.270084 0.55706,2.553664 0.51615,8.092814 l -0.0389,5.27363 -6.4906,0.0196 c -3.56983,0.0108 -6.73967,-0.03 -7.04408,-0.0907 z m 8.84251,-3.40408 c 0.18915,-0.18917 0.22569,-2.9088 0.0429,-3.19714 -0.0926,-0.14614 -0.74758,-0.17219 -3.34465,-0.13302 -2.75775,0.0416 -3.29335,0.0833 -3.66665,0.28543 -0.55568,0.30085 -0.84743,0.86472 -0.84743,1.6377 0,0.77971 0.4132,1.29239 1.15707,1.43556 0.93099,0.17921 6.47473,0.15545 6.65872,-0.0285 z m 21.04557,3.36694 c -0.0371,-0.0967 -0.0504,-0.99424 -0.0296,-1.99451 l 0.0379,-1.81866 6.76106,-0.0779 c 4.32546,-0.0498 6.91724,-0.13106 7.19463,-0.22551 1.17459,-0.39998 1.63756,-0.95739 1.75707,-2.11551 0.0849,-0.82259 -0.12406,-1.6173 -0.55084,-2.09465 -0.63539,-0.71066 -0.87574,-0.74405 -6.03451,-0.83814 -5.11558,-0.0933 -5.55363,-0.14619 -7.11533,-0.85934 -1.36679,-0.62415 -2.35495,-1.9051 -2.7713,-3.592524 -0.23662,-0.95907 -0.23619,-3.50588 0,-4.4623 0.59534,-2.40271 1.89545,-3.68517 4.47704,-4.41622 0.80574,-0.22818 1.50395,-0.24891 8.38372,-0.24891 h 7.50477 l 0.0374,1.99451 0.0374,1.99452 -6.05478,0.001 c -3.57494,0 -6.41474,0.0592 -6.93367,0.143 -1.74181,0.28135 -2.56924,1.16038 -2.56924,2.7295 0,0.90812 0.16489,1.39246 0.64548,1.8962 0.66183,0.69375 1.27595,0.773874 5.97112,0.779064 4.75099,0.005 5.8193,0.12024 7.22402,0.7776 1.9766,0.92496 2.79391,2.58939 2.78962,5.68113 -0.003,2.45092 -0.5087,3.91827 -1.74875,5.07819 -0.87968,0.82283 -2.09978,1.37868 -3.6009,1.64046 -1.61181,0.28107 -15.30657,0.30679 -15.41317,0.0289 z m 24.41581,-11.32615 V 90.383946 l 7.538558,0.0492 c 6.58008,0.043 7.63773,0.0782 8.3184,0.27755 2.22949,0.65277 3.60852,1.98446 4.15444,4.01188 0.0887,0.3295 0.1588,1.12756 0.15571,1.77346 -0.01,2.0471 -0.76026,3.624134 -2.22317,4.671264 -0.38676,0.27686 -0.7548,0.5474 -0.8178,0.60119 -0.0629,0.0538 0.2498,0.34521 0.69506,0.64757 1.03222,0.70098 1.70426,1.48845 2.08423,2.44226 0.42368,1.0634 0.43008,3.62983 0.0119,4.76616 -0.75184,2.04317 -2.16342,3.09928 -4.77259,3.57079 -0.76631,0.13848 -2.74077,0.18442 -8.07945,0.18798 l -7.065298,0.005 z m 13.113728,7.2981 c 1.28093,-0.27471 1.89579,-1.09979 1.89579,-2.544 0,-0.95421 -0.1592,-1.43356 -0.64542,-1.94322 -0.65292,-0.68438 -1.30345,-0.77435 -5.5993,-0.77435 h -3.89686 v 2.61427 c 0,1.43786 0.0406,2.65485 0.0901,2.70442 0.15288,0.15286 7.41368,0.102 8.15565,-0.0571 z m 0.56618,-9.696704 c 0.71289,-0.35118 0.98716,-0.70048 1.21304,-1.5451 0.33684,-1.25937 -0.16833,-2.50864 -1.23159,-3.04578 -0.58502,-0.29556 -0.71913,-0.30425 -4.69781,-0.30425 h -4.09561 v 2.54667 c 0,1.40067 0.0452,2.59187 0.10046,2.64711 0.0552,0.0553 1.89595,0.0806 4.09046,0.0563 3.84394,-0.0425 4.01306,-0.0555 4.62105,-0.355 z m 16.542,13.703464 c -3.10878,-0.49436 -5.64579,-2.5712 -6.76032,-5.53415 -0.65892,-1.75175 -0.792,-2.65777 -0.79684,-5.42444 -0.007,-3.747294 0.5199,-6.002954 1.8774,-8.044994 0.81759,-1.22979 1.6229,-1.91141 3.11057,-2.63279 2.08915,-1.01306 2.39504,-1.05366 8.42127,-1.1174 l 5.31124,-0.0562 -0.0376,1.93667 -0.0375,1.93665 -4.66514,0.072 c -4.51093,0.0696 -4.69191,0.0826 -5.47605,0.39407 -1.07744,0.42795 -2.09881,1.46344 -2.50185,2.53631 -0.52882,1.40778 -0.71258,2.68123 -0.72776,5.043314 -0.0265,4.09058 0.70691,5.7668 2.91698,6.66806 0.67733,0.27622 0.99279,0.29667 5.58585,0.36191 l 4.86797,0.0691 v 1.96071 1.96071 l -5.00322,0.0213 c -3.48803,0.0148 -5.3307,-0.0308 -6.08492,-0.15078 z M -192.28763,79.664756 c -0.031,-0.0292 -2.18606,-0.12196 -4.78906,-0.20609 -12.6683,-0.40948 -14.56525,-0.51791 -24.00175,-1.3718 -9.18313,-0.83097 -19.6465,-1.94532 -27.9232,-2.97382 -10.53769,-1.30947 -20.53661,-3.19313 -32.03234,-6.0345 -5.40168,-1.3351 -5.43996,-1.35296 -5.83326,-2.72122 -0.12174,-0.42352 -0.76658,-2.59552 -1.43299,-4.82667 -2.08756,-6.98929 -2.83025,-10.02747 -3.83826,-15.70209 -1.73193,-9.74985 -2.72626,-20.03886 -3.17396,-32.842322 -0.1751,-5.0087866 -0.17627,-19.7209903 -0.003,-24.475034 0.68022,-18.545318 2.84459,-37.503666 5.81329,-50.919802 0.99793,-4.509949 2.49828,-10.136462 2.92667,-10.975408 0.10376,-0.203264 0.37107,-0.463902 0.59401,-0.579189 0.47488,-0.245555 6.19813,-1.580843 12.12017,-2.82774 22.24301,-4.683297 46.81339,-7.761425 70.76616,-8.865436 13.91611,-0.641411 30.7357,-0.691507 44.42016,-0.132305 18.69056,0.76377 34.44946,2.298787 57.67187,5.617601 7.586558,1.084229 10.881118,1.622076 19.742268,3.222956 3.08641,0.557604 6.55484,1.172234 7.7076,1.365846 5.28399,0.887465 6.09544,1.42186 7.08147,4.66376 0.78277,2.573459 2.90486,11.792017 4.06215,17.646373 3.5819,18.119093 4.98191,32.562858 4.99358,51.5192694 0.007,11.17895 -0.46884,17.9094206 -2.27496,32.1826506 -2.41742,19.10434 -3.68917,25.68826 -6.48875,33.59308 -1.23259,3.48047 -1.33506,3.57582 -4.80428,4.4715 -9.04044,2.33407 -16.47913,3.64118 -28.8021,5.06102 -21.016288,2.42147 -32.468408,3.4236 -59.564968,5.21225 -13.40935,0.88517 -14.99528,0.94696 -24.35106,0.94869 -4.69159,0.001 -8.55556,-0.0223 -8.58655,-0.0516 z m 18.53661,-9.06634 c 9.28169,-1.57804 16.53405,-7.30944 23.02364,-18.1952 2.05962,-3.45481 4.45654,-8.53901 7.33116,-15.55043 1.93767,-4.7262 2.45038,-5.78914 3.2961,-6.83369 0.36353,-0.449 1.87047,-1.85508 3.34872,-3.12463 3.62188,-3.11047 4.46688,-4.05186 5.67367,-6.32067 1.28971,-2.4247 1.8541,-5.016901 1.85809,-8.534101 0.003,-2.0851706 -0.0251,-2.3614216 -0.29757,-2.9731836 -0.56161,-1.261885 -1.06194,-1.618028 -3.70846,-2.639682 -2.01088,-0.776295 -2.52822,-1.164021 -2.52822,-1.894922 0,-0.213354 0.062,-1.136642 0.13782,-2.051746 0.0757,-0.915103 0.25305,-3.489309 0.39391,-5.720461 0.23384,-3.7031577 0.24,-4.3335227 0.0708,-7.2343314 -0.41294,-7.076591 -0.95774,-10.429904 -2.36207,-14.539145 -3.30774,-9.678602 -11.38811,-17.0663 -22.85068,-20.891813 -7.45887,-2.489321 -15.2005,-3.298687 -23.79367,-2.487559 -10.15161,0.958239 -19.18814,3.927705 -26.10831,8.579376 -4.24397,2.852748 -7.68228,6.82221 -9.6598,11.152008 -1.97369,4.321424 -3.10941,10.047605 -3.272,16.496866 -0.10821,4.2922507 0.0877,7.3372947 0.84381,13.11645645 0.36044,2.75479595 0.0401,3.68689195 -1.73154,5.03881495 -2.51047,1.915676 -3.5551,3.49165 -3.89281,5.8728896 -0.18921,1.334137 0.0366,2.939842 0.68815,4.894413 1.30252,3.90709 3.52288,7.41874 7.96073,12.59033 0.76584,0.89246 1.58885,1.9269 1.82891,2.29876 0.24005,0.37186 2.12698,3.93156 4.19314,7.91044 4.4414,8.55288 5.43719,10.41321 6.87602,12.84601 2.34624,3.96701 5.22708,7.83117 7.65902,10.2733 4.48014,4.49889 10.37706,7.30543 17.0434,8.11152 1.52818,0.18477 6.46623,0.0674 7.97809,-0.18962 z m -95.72217,-42.04633 c 2.73187,-0.69615 4.76424,-1.98654 6.90078,-4.38142 1.02642,-1.1505 3.3184,-4.5733 4.59184,-6.85734 3.05142,-5.473042 6.11045,-13.5114536 7.62334,-20.0325706 0.71731,-3.0918567 0.37094,-2.7521217 2.80633,-2.7526667 4.851,-0.0013 8.33559,-0.635857 9.41863,-1.715749 0.44808,-0.446759 0.45591,-0.474411 0.38841,-1.364406 -0.16044,-2.1149307 -1.99511,-7.6900817 -5.23825,-15.9179567 -3.48538,-8.842505 -3.71221,-9.581955 -3.71221,-12.102301 0,-1.973329 0.26133,-3.128719 1.28466,-5.679284 0.90752,-2.261968 2.18324,-6.246855 2.59736,-8.113273 0.39164,-1.764898 0.42101,-5.728875 0.0551,-7.437168 -0.34914,-1.630042 -0.8151,-2.971219 -1.57387,-4.529909 -0.79253,-1.628079 -1.63219,-2.894081 -3.59569,-5.421529 -0.81431,-1.048176 -1.7848,-2.325121 -2.15664,-2.837648 -0.86408,-1.190927 -1.5461,-1.593506 -2.69629,-1.591548 -0.45908,7.93e-4 -2.84155,0.400732 -5.417,0.909357 -2.52865,0.499374 -6.63596,1.301752 -9.12744,1.783056 -2.49142,0.481301 -4.89498,1.002779 -5.34122,1.158835 -3.35902,1.174737 -5.12606,3.938516 -6.77524,10.596995 -2.64506,10.679353 -4.19423,24.021936 -5.27521,45.434324 -0.2739,5.4256937 -0.41444,24.768026 -0.20584,28.334442 0.18624,3.18451 0.79589,9.39235 0.97816,9.9602 0.16724,0.52103 0.87781,1.17421 1.4968,1.37591 0.69937,0.2279 6.40694,1.34587 7.6178,1.49215 1.63076,0.197 3.87464,0.0669 5.35567,-0.3105 z M -67.930112,9.7747404 c 0.17825,-0.495221 0.22733,-17.3631807 0.0633,-21.7368064 -0.3433,-9.15212 -1.15665,-17.335013 -2.57379,-25.894855 -0.65267,-3.942356 -2.15479,-11.981553 -2.98971,-16.001 -0.6945,-3.343278 -2.83525,-12.233062 -3.0611,-12.711773 -0.41425,-0.877861 -1.11371,-1.176858 -4.67815,-1.999816 -6.71169,-1.549601 -13.16808,-2.616213 -24.051268,-3.973338 -9.94977,-1.240729 -34.00619,-3.919728 -35.19766,-3.919728 -0.29736,0 -0.51123,0.07545 -0.55779,0.196797 -0.10999,0.28661 0.20442,14.444679 0.36478,16.425551 0.342,4.224891 1.54974,7.798716 3.60243,10.659735 0.40029,0.557917 1.53416,1.964846 2.51974,3.12651 2.34817,2.767809 9.78307,11.695602 10.31726,12.388916 0.6108,0.792755 1.20624,1.913067 1.52464,2.868504 0.15401,0.4621 0.64566,3.200329 1.09257,6.084954 1.05325,6.798106 1.57319,9.637583 2.65642,14.507422 0.89651,4.0304347 1.03415,4.4831627 1.48701,4.8917697 0.38671,0.348932 2.48851,0.693684 4.2395,0.695391 2.63924,0.0024 4.1715,-0.553755 6.42299,-2.332019 1.24654,-0.984525 3.44627,-2.443816 3.68384,-2.443816 0.0729,0 0.76472,0.563359 1.53733,1.251916 7.276618,6.4852037 15.768608,11.6746967 25.308698,15.4662897 2.5278,1.004649 7.53446,2.7323326 7.95859,2.7463476 0.12147,0.0042 0.27016,-0.1296136 0.33038,-0.2969516 z"
       id="path48" />
  </g>
</svg>
